<svg xmlns="http://www.w3.org/2000/svg" xmlns:xlink="http://www.w3.org/1999/xlink" viewBox="0 0 32 32">
    <defs>
        <style>
        .cls-1{
            fill:#fff;
        </style>
        <!-- <linearGradient id="linear-gradient" x1="6.75" y1="16" x2="25.25" y2="16" gradientUnits="userSpaceOnUse">
        <stop offset="0" stop-color="#004bfa" id="id_102"></stop>
        <stop offset="1" stop-color="#00d0fa" id="id_103"></stop>
        </linearGradient> -->
    </defs>
    <title>temperature</title>
    <g id="Layer_5" data-name="Layer 5">
        <path class="cls-1" d="M17.25,18.38V6a4,4,0,0,0-8,0V18.38a6.5,6.5,0,1,0,8,0Zm-4,9.63a4.5,4.5,0,0,1-2.46-8.27,1,1,0,0,0,.46-.84V6a2,2,0,0,1,4,0V18.89a1,1,0,0,0,.46.84A4.5,4.5,0,0,1,13.25,28Zm1-6.82V14a1,1,0,0,0-2,0v7.18a3,3,0,1,0,2,0Zm-1,3.82a1,1,0,1,1,1-1A1,1,0,0,1,13.25,25Zm10-7a1,1,0,0,1-1,1h-3a1,1,0,0,1,0-2h3A1,1,0,0,1,23.25,18Zm2-3a1,1,0,0,1-1,1h-5a1,1,0,0,1,0-2h5A1,1,0,0,1,25.25,15Zm-7-3a1,1,0,0,1,1-1h3a1,1,0,0,1,0,2h-3A1,1,0,0,1,18.25,12Zm7-3a1,1,0,0,1-1,1h-5a1,1,0,0,1,0-2h5A1,1,0,0,1,25.25,9Zm-7-3a1,1,0,0,1,1-1h3a1,1,0,0,1,0,2h-3A1,1,0,0,1,18.25,6Zm0-3a1,1,0,0,1,1-1h5a1,1,0,0,1,0,2h-5A1,1,0,0,1,18.25,3Z" id="id_101">
        </path>
    </g>
</svg>