<svg xmlns="http://www.w3.org/2000/svg" xmlns:xlink="http://www.w3.org/1999/xlink" viewBox="0 0 64 64"><defs><style>.cls-1{fill:url(#linear-gradient);}</style><linearGradient id="linear-gradient" x1="2.58" y1="32.01" x2="61.5" y2="32.01" gradientUnits="userSpaceOnUse"><stop offset="0" stop-color="#0073ff" id="id_102"></stop><stop offset="1" stop-color="#00d5ff" id="id_103"></stop></linearGradient></defs><g id="Layer_41" data-name="Layer 41"><path class="cls-1" d="M61.5,21.93c0-14.56-18.76-20.73-27.4-9.07a14.84,14.84,0,0,0-18,11.8C-3.51,28.54-1.12,56.71,18.93,57.27H42.5c12.36.17,20.5-13.78,14.36-24.43A15.12,15.12,0,0,0,61.5,21.93ZM46.3,9.73c10.62-.07,16.21,13,8.84,20.6a16.3,16.3,0,0,0-9.83-5.67,14.69,14.69,0,0,0-8.19-10.75A12.1,12.1,0,0,1,46.3,9.73ZM42.5,54.27H18.93C2,53.74.75,29.64,17.6,27.47a13.13,13.13,0,0,1,6.84,1.12,1.51,1.51,0,0,0,2-.74c1.18-2.74-5.43-3.37-7.19-3.43a11.83,11.83,0,0,1,23,0c-1.74.06-8.38.72-7.19,3.45a1.51,1.51,0,0,0,2,.74c8.59-4.09,19.15,2.66,18.94,12.24A13.45,13.45,0,0,1,42.5,54.27Z" id="id_101"></path></g></svg>