<svg id="Layer_1" data-name="Layer 1" xmlns="http://www.w3.org/2000/svg" xmlns:xlink="http://www.w3.org/1999/xlink" viewBox="0 0 32 32"><defs><style>.cls-1{fill:url(#linear-gradient);}</style><linearGradient id="linear-gradient" x1="1" y1="16" x2="31" y2="16" gradientUnits="userSpaceOnUse"><stop offset="0" stop-color="#006aff" id="id_102"></stop><stop offset="1" stop-color="#00d5ff" id="id_103"></stop></linearGradient></defs><title>Sunrise</title><path class="cls-1" d="M28,24H25.53A10,10,0,1,0,6.47,24H4a1,1,0,0,0,0,2H28a1,1,0,0,0,0-2ZM8,21a8,8,0,1,1,16,0,7.91,7.91,0,0,1-.59,3H8.59A7.91,7.91,0,0,1,8,21ZM15,9V7a1,1,0,0,1,2,0V9a1,1,0,0,1-2,0Zm8.78,4.22a1,1,0,0,1,0-1.41l1.41-1.41a1,1,0,0,1,1.41,1.41l-1.41,1.41a1,1,0,0,1-1.41,0ZM31,21a1,1,0,0,1-1,1H28a1,1,0,0,1,0-2h2A1,1,0,0,1,31,21ZM5.39,11.81a1,1,0,0,1,1.41-1.41l1.41,1.41a1,1,0,1,1-1.41,1.41ZM4,22H2a1,1,0,0,1,0-2H4a1,1,0,0,1,0,2Z" id="id_101"></path></svg>