<svg id="Layer_1" data-name="Layer 1" xmlns="http://www.w3.org/2000/svg" xmlns:xlink="http://www.w3.org/1999/xlink" viewBox="0 0 32 32"><defs><style>.cls-1{fill:url(#linear-gradient);}</style><linearGradient id="linear-gradient" x1="1.95" y1="15.5" x2="30.05" y2="15.5" gradientUnits="userSpaceOnUse"><stop offset="0" stop-color="#006aff" id="id_102"></stop><stop offset="1" stop-color="#00eeff" id="id_103"></stop></linearGradient></defs><title>sunset</title><path class="cls-1" d="M29,20H26.92A9.73,9.73,0,0,0,26,16,11.06,11.06,0,0,0,16,9.08h0A10.92,10.92,0,0,0,5.08,20H3a1,1,0,0,0,0,2H29a1,1,0,0,0,0-2ZM9.7,13.69A8.86,8.86,0,0,1,16,11.08h0a9.06,9.06,0,0,1,8.17,5.7A7.82,7.82,0,0,1,24.92,20H7.08A8.86,8.86,0,0,1,9.7,13.69Zm11-7.2,1-2.62a1,1,0,1,1,1.87.72l-1,2.62a1,1,0,1,1-1.87-.72ZM7.57,5A1,1,0,1,1,9.4,4.19l1.14,2.56a1,1,0,1,1-1.83.81ZM15,6V3a1,1,0,0,1,2,0V6a1,1,0,0,1-2,0Zm11.36,5.1a1,1,0,0,1,0-1.41l2-2a1,1,0,0,1,1.41,1.41l-2,2a1,1,0,0,1-1.41,0Zm-24.12-2A1,1,0,0,1,3.65,7.7l2,2A1,1,0,1,1,4.22,11.1ZM29,25a1,1,0,0,1-1,1H22a1,1,0,0,1,0-2h6A1,1,0,0,1,29,25ZM11,26H5a1,1,0,0,1,0-2h6a1,1,0,0,1,0,2Zm12,2a1,1,0,0,1-1,1H11a1,1,0,0,1,0-2H22A1,1,0,0,1,23,28Z" id="id_101"></path></svg>